<svg width="212" height="26" viewBox="0 0 212 26" xmlns="http://www.w3.org/2000/svg"><title>Group 3</title><g fill="#0070E0" fill-rule="evenodd"><path d="M.095 1.407h6.58c5.637 0 9.2 3.637 9.2 9.31 0 5.675-3.545 9.313-9.2 9.313H.096V1.407zM6.53 16.63c3.545 0 5.49-2.274 5.49-5.894 0-3.637-1.945-5.91-5.49-5.91H3.95V16.63h2.58zM25.855 10.19c-.51-.308-1.182-.454-1.89-.454-1.273 0-2.31.673-2.582 1.91v8.402h-3.745V6.48H21.4V7.81c.583-.964 1.692-1.636 3.037-1.636.636 0 1.218.127 1.418.236v3.783zM33.363 20.357c-3.945 0-6.654-2.91-6.654-7.074 0-4.183 2.708-7.11 6.653-7.11 3.945 0 6.636 2.908 6.636 7.11 0 4.164-2.692 7.074-6.637 7.074zm0-10.985c-1.89 0-2.91 1.637-2.91 3.91 0 2.238 1.038 3.892 2.91 3.892 1.873 0 2.91-1.636 2.91-3.89 0-2.275-1.037-3.912-2.91-3.912zM45.38 25.068h-3.763V6.48h3.763V7.61c.6-.727 1.945-1.418 3.4-1.418 3.944 0 6.18 3.273 6.18 7.11 0 3.82-2.236 7.075-6.18 7.075-1.455 0-2.8-.69-3.4-1.418v6.11zm0-9.567c.454.947 1.454 1.584 2.545 1.584 2.036 0 3.254-1.637 3.254-3.8 0-2.184-1.22-3.82-3.255-3.82-1.127 0-2.09.672-2.545 1.582V15.5z"/><path d="M60.378 20.048h-3.8V.315h3.8v7.293c.6-.727 1.945-1.418 3.4-1.418 3.944 0 6.162 3.22 6.162 7.11 0 3.893-2.218 7.075-6.163 7.075-1.454 0-2.8-.69-3.4-1.418v1.09zm0-4.547c.418.947 1.418 1.584 2.545 1.584 2.036 0 3.254-1.637 3.254-3.8 0-2.184-1.218-3.82-3.254-3.82-1.09 0-2.127.672-2.545 1.582V15.5z" id="XMLID_18_"/><path d="M77.94 20.393c-3.946 0-6.655-2.91-6.655-7.074 0-4.184 2.71-7.112 6.654-7.112 3.943 0 6.634 2.91 6.634 7.11 0 4.166-2.71 7.075-6.635 7.075zm0-10.984c-1.892 0-2.91 1.636-2.91 3.91 0 2.236 1.036 3.89 2.91 3.89 1.87 0 2.907-1.636 2.907-3.89 0-2.274-1.036-3.91-2.908-3.91z" id="XMLID_15_"/><path id="XMLID_13_" d="M93.027 13.046l4.945 7.02H93.81L90.9 15.81l-2.945 4.256H84.01l4.89-6.93L84.3 6.5h4.164l2.618 3.854L93.736 6.5h3.945z"/><g><path d="M118.81 14.69c0 3.414-2.412 5.323-6.23 5.323h-7.734V1.33h7.132c3.917 0 6.328 1.706 6.328 5.122 0 2.01-1.105 3.516-2.51 3.917 1.707.602 3.013 2.31 3.013 4.32zm-7.134-5.727c1.91 0 2.813-.703 2.813-2.21 0-1.507-1.005-2.21-2.814-2.21h-3.214v4.42h3.214zm-3.214 7.735h3.717c1.807 0 2.81-.904 2.81-2.31 0-1.507-1.003-2.31-2.81-2.31h-3.718v4.62zM133.374 20.013h-3.817v-1.205c-.803.803-2.11 1.506-3.616 1.506-3.013 0-4.82-2.01-4.82-5.022v-8.94h3.816v8.136c0 1.406.704 2.41 2.21 2.41 1.206 0 2.21-.702 2.41-1.908V6.35h3.818v13.663zM139.502 15.995c.302 1.004 1.206 1.507 2.31 1.507 1.206 0 1.91-.503 1.91-1.306 0-.603-.403-.904-1.407-1.206l-2.712-.602c-2.11-.503-3.516-1.507-3.516-3.818 0-2.61 2.41-4.42 5.424-4.42 3.417 0 5.325 1.608 5.828 4.22h-3.617c-.2-.804-.903-1.306-2.108-1.306-.904 0-1.808.4-1.808 1.305 0 .502.4.803 1.205 1.104l2.812.603c2.41.603 3.616 1.91 3.616 3.918 0 2.813-2.41 4.42-5.625 4.42-3.315 0-5.626-1.607-6.028-4.32h3.717v-.1zM151.758 4.644c-1.206 0-2.21-.905-2.21-2.21 0-1.206 1.004-2.21 2.21-2.21 1.205 0 2.21.904 2.21 2.21 0 1.305-1.005 2.21-2.21 2.21zm1.908 15.37h-3.817V6.35h3.816v13.663zM157.182 6.452H161v1.205c.703-.803 2.11-1.507 3.616-1.507 3.114 0 4.82 2.01 4.82 5.023v8.94h-3.816v-8.136c0-1.407-.703-2.41-2.21-2.41-1.205 0-2.21.702-2.51 1.907v8.64h-3.818V6.45h.1zM184.405 15.593c-.502 2.913-2.612 4.72-6.027 4.72-3.918 0-6.63-2.912-6.63-7.13 0-4.12 2.712-7.133 6.53-7.133 4.018 0 6.228 2.813 6.228 6.73v1.206h-9.04c.1 2.01 1.305 3.214 2.912 3.214 1.306 0 2.21-.502 2.51-1.707l3.517.1zm-8.94-3.817h5.223c0-1.407-.904-2.512-2.41-2.512-1.407-.1-2.41.804-2.813 2.512zM189.93 15.995c.3 1.004 1.206 1.507 2.31 1.507 1.206 0 1.91-.503 1.91-1.306 0-.603-.403-.904-1.407-1.206l-2.712-.602c-2.11-.503-3.515-1.507-3.515-3.818 0-2.61 2.41-4.42 5.424-4.42 3.415 0 5.323 1.608 5.825 4.22h-3.616c-.202-.804-.905-1.306-2.11-1.306-.904 0-1.81.4-1.81 1.305 0 .502.403.803 1.207 1.104l2.813.603c2.41.603 3.616 1.91 3.616 3.918 0 2.813-2.41 4.42-5.625 4.42-3.314 0-5.625-1.607-6.027-4.32h3.717v-.1zM203.19 15.995c.3 1.004 1.205 1.507 2.31 1.507 1.206 0 1.91-.503 1.91-1.306 0-.603-.403-.904-1.407-1.206l-2.713-.602c-2.11-.503-3.515-1.507-3.515-3.818 0-2.61 2.41-4.42 5.424-4.42 3.415 0 5.323 1.608 5.825 4.22h-3.616c-.202-.804-.905-1.306-2.11-1.306-.905 0-1.81.4-1.81 1.305 0 .502.403.803 1.207 1.104l2.813.603c2.41.603 3.616 1.91 3.616 3.918 0 2.813-2.41 4.42-5.626 4.42-3.315 0-5.625-1.607-6.027-4.32h3.717v-.1z"/></g></g></svg>