<?xml version="1.0" ?><svg height="24px" version="1.1" viewBox="0 0 24 24" width="24px" xmlns="http://www.w3.org/2000/svg" xmlns:sketch="http://www.bohemiancoding.com/sketch/ns" xmlns:xlink="http://www.w3.org/1999/xlink"><title/><desc/><defs/><g fill="none" fill-rule="evenodd" id="miu" stroke="none" stroke-width="1"><g id="Artboard-1" transform="translate(-467.000000, -623.000000)"><g id="slice" transform="translate(215.000000, 119.000000)"/><path d="M469.250385,646 C469.50077,646.5 470.001541,647 471.003082,647 L489.030817,647 C491.033898,647 491.033898,645 491.033898,645 L491.033898,636 C491.033898,636 491.033898,634 489.030817,634 L481,634 L481,635 L487.5,635 L487.5,646 L476.25,646 L469.250385,646 L469.250385,646 Z M490.200012,640.5 C490.200012,639.947715 489.752297,639.5 489.200012,639.5 C488.647727,639.5 488.200012,639.947715 488.200012,640.5 C488.200012,641.052285 488.647727,641.5 489.200012,641.5 C489.752297,641.5 490.200012,641.052285 490.200012,640.5 Z M469,623 C469,623 467,623 467,625.003082 L467,643.030817 C467,645.033898 469,645.033898 469,645.033898 L478,645.033898 C478,645.033898 480,645.033898 480,643.030817 L480,625.003082 C480,623 478,623 478,623 L469,623 Z M468,625.5 L468,641.5 L479,641.5 L479,625.5 L468,625.5 Z M473.5,644.199997 C474.052285,644.199997 474.5,643.752282 474.5,643.199997 C474.5,642.647712 474.052285,642.199997 473.5,642.199997 C472.947715,642.199997 472.5,642.647712 472.5,643.199997 C472.5,643.752282 472.947715,644.199997 473.5,644.199997 Z M471.221295,624 C471.099077,624 471,624.096554 471,624.221103 L471,624.279668 C471,624.401779 471.099877,624.50077 471.221295,624.50077 L475.778705,624.50077 C475.900923,624.50077 476,624.404217 476,624.279668 L476,624.221103 C476,624.098991 475.900123,624 475.778705,624 L471.221295,624 Z" fill="#000000" id="device-smart-phones-iphones-vertical-glyph"/></g></g></svg>